<?xml version="1.0" encoding="UTF-8" standalone="no"?>
<!-- Created with Inkscape (http://www.inkscape.org/) -->

<svg
   xmlns:dc="http://purl.org/dc/elements/1.1/"
   xmlns:cc="http://creativecommons.org/ns#"
   xmlns:rdf="http://www.w3.org/1999/02/22-rdf-syntax-ns#"
   xmlns:svg="http://www.w3.org/2000/svg"
   xmlns="http://www.w3.org/2000/svg"
   xmlns:sodipodi="http://sodipodi.sourceforge.net/DTD/sodipodi-0.dtd"
   xmlns:inkscape="http://www.inkscape.org/namespaces/inkscape"
   width="640"
   height="960"
   id="svg2"
   version="1.1"
   inkscape:version="0.48.2 r9819"
   sodipodi:docname="New document 1">
  <defs
     id="defs4">
    <clipPath
       id="clipPath3303"
       clipPathUnits="userSpaceOnUse">
      <path
         id="path3305"
         d="m 0,541.936 737.097,0 L 737.097,0 0,0 0,541.936 z" />
    </clipPath>
    <clipPath
       id="clipPath3095"
       clipPathUnits="userSpaceOnUse">
      <path
         id="path3097"
         d="m 0,541.936 737.097,0 L 737.097,0 0,0 0,541.936 z" />
    </clipPath>
  </defs>
  <sodipodi:namedview
     id="base"
     pagecolor="#ffffff"
     bordercolor="#666666"
     borderopacity="1.0"
     inkscape:pageopacity="0.0"
     inkscape:pageshadow="2"
     inkscape:zoom="0.5"
     inkscape:cx="375"
     inkscape:cy="520"
     inkscape:document-units="px"
     inkscape:current-layer="layer1"
     showgrid="false"
     inkscape:window-width="1439"
     inkscape:window-height="771"
     inkscape:window-x="0"
     inkscape:window-y="0"
     inkscape:window-maximized="0" />
  <metadata
     id="metadata7">
    <rdf:RDF>
      <cc:Work
         rdf:about="">
        <dc:format>image/svg+xml</dc:format>
        <dc:type
           rdf:resource="http://purl.org/dc/dcmitype/StillImage" />
        <dc:title></dc:title>
      </cc:Work>
    </rdf:RDF>
  </metadata>
  <g
     inkscape:label="Layer 1"
     inkscape:groupmode="layer"
     id="layer1"
     transform="translate(0,-92.362183)">
    <g
       transform="matrix(1.25,0,0,-1.25,-138.75975,914.6159)"
       inkscape:label="euruko2013_logo"
       id="g3089">
      <g
         id="g3091">
        <g
           clip-path="url(#clipPath3095)"
           id="g3093">
          <g
             transform="translate(500.3481,383.6055)"
             id="g3099">
            <path
               id="path3101"
               style="fill:none;stroke:#9b9b9b;stroke-width:0.25;stroke-linecap:butt;stroke-linejoin:miter;stroke-miterlimit:10;stroke-opacity:1;stroke-dasharray:none"
               d="m 0,0 c 74.13,-71.634 77.36,-188.546 7.217,-261.131 -70.142,-72.586 -187.096,-73.354 -261.227,-1.72 -74.13,71.634 -77.36,188.549 -7.218,261.135 C -191.084,70.869 -74.13,71.639 0,0 z"
               inkscape:connector-curvature="0" />
          </g>
          <g
             transform="translate(205.6313,360.1719)"
             id="g3103">
            <path
               id="path3105"
               style="fill:none;stroke:#bfbfbf;stroke-width:0.40000001;stroke-linecap:butt;stroke-linejoin:miter;stroke-miterlimit:10;stroke-opacity:1;stroke-dasharray:none"
               d="M 0,0 C 15.152,-14.645 15.567,-38.799 0.923,-53.951 -13.721,-69.107 -37.878,-69.52 -53.032,-54.877 -68.186,-40.232 -68.598,-16.074 -53.956,-0.92 -39.31,14.232 -15.156,14.645 0,0 z"
               inkscape:connector-curvature="0" />
          </g>
          <g
             transform="translate(196.4614,351.3867)"
             id="g3107">
            <path
               id="path3109"
               style="fill:none;stroke:#bfbfbf;stroke-width:0.40000001;stroke-linecap:butt;stroke-linejoin:miter;stroke-miterlimit:10;stroke-opacity:1;stroke-dasharray:none"
               d="m 0,0 c 9.899,-9.569 10.168,-25.348 0.604,-35.246 -9.565,-9.901 -25.345,-10.169 -35.245,-0.604 -9.899,9.563 -10.17,25.348 -0.603,35.244 C -25.678,9.295 -9.899,9.565 0,0 z"
               inkscape:connector-curvature="0" />
          </g>
          <g
             transform="translate(182.5454,336.3516)"
             id="g3111">
            <path
               id="path3113"
               style="fill:#999999;fill-opacity:1;fill-rule:nonzero;stroke:none"
               d="m 0,0 c 1.673,-1.615 1.719,-4.283 0.103,-5.959 -1.616,-1.671 -4.283,-1.716 -5.957,-0.1 -1.674,1.62 -1.72,4.284 -0.102,5.959 C -4.338,1.572 -1.67,1.617 0,0"
               inkscape:connector-curvature="0" />
          </g>
          <g
             transform="translate(235.3813,422.8984)"
             id="g3115">
            <path
               id="path3117"
               style="fill:none;stroke:#bfbfbf;stroke-width:0.40000001;stroke-linecap:butt;stroke-linejoin:miter;stroke-miterlimit:10;stroke-opacity:1;stroke-dasharray:none"
               d="m 0,0 c 13.984,-13.52 14.368,-35.813 0.853,-49.799 -13.515,-13.986 -35.808,-14.365 -49.795,-0.849 -13.985,13.513 -14.367,35.806 -0.852,49.794 C -36.278,13.131 -13.987,13.512 0,0 z"
               inkscape:connector-curvature="0" />
          </g>
          <g
             transform="translate(247.8081,469.1748)"
             id="g3119">
            <path
               id="path3121"
               style="fill:none;stroke:#bfbfbf;stroke-width:0.40000001;stroke-linecap:butt;stroke-linejoin:miter;stroke-miterlimit:10;stroke-opacity:1;stroke-dasharray:none"
               d="m 0,0 c 14.327,-13.849 14.719,-36.689 0.871,-51.017 -13.848,-14.332 -36.685,-14.722 -51.017,-0.873 -14.329,13.845 -14.72,36.688 -0.874,51.016 C -37.172,13.455 -14.33,13.845 0,0 z"
               inkscape:connector-curvature="0" />
          </g>
          <g
             transform="translate(289.8335,464.1621)"
             id="g3123">
            <path
               id="path3125"
               style="fill:none;stroke:#bfbfbf;stroke-width:0.40000001;stroke-linecap:butt;stroke-linejoin:miter;stroke-miterlimit:10;stroke-opacity:1;stroke-dasharray:none"
               d="m 0,0 c 13.171,-12.727 13.529,-33.723 0.801,-46.892 -12.727,-13.17 -33.721,-13.53 -46.891,-0.803 -13.172,12.728 -13.529,33.72 -0.804,46.894 C -34.168,12.371 -13.17,12.729 0,0 z"
               inkscape:connector-curvature="0" />
          </g>
          <g
             transform="translate(269.4126,443.1855)"
             id="g3127">
            <path
               id="path3129"
               style="fill:#999999;fill-opacity:1;fill-rule:nonzero;stroke:none"
               d="M 0,0 C 1.717,-1.657 1.764,-4.393 0.104,-6.108 -1.554,-7.823 -4.29,-7.872 -6.004,-6.212 -7.72,-4.555 -7.768,-1.821 -6.108,-0.104 -4.451,1.611 -1.716,1.66 0,0"
               inkscape:connector-curvature="0" />
          </g>
          <g
             transform="translate(226.0464,446.0342)"
             id="g3131">
            <path
               id="path3133"
               style="fill:#999999;fill-opacity:1;fill-rule:nonzero;stroke:none"
               d="m 0,0 c 1.675,-1.616 1.722,-4.284 0.103,-5.955 -1.616,-1.676 -4.283,-1.72 -5.957,-0.104 -1.673,1.62 -1.717,4.284 -0.102,5.958 C -4.338,1.571 -1.67,1.62 0,0"
               inkscape:connector-curvature="0" />
          </g>
          <g
             transform="translate(216.1401,400.0293)"
             id="g3135">
            <path
               id="path3137"
               style="fill:none;stroke:#9b9b9b;stroke-width:0.25;stroke-linecap:butt;stroke-linejoin:miter;stroke-miterlimit:10;stroke-opacity:1;stroke-dasharray:none"
               d="m 0,0 c 1.588,-1.535 1.632,-4.064 0.097,-5.65 -1.535,-1.59 -4.065,-1.631 -5.651,-0.098 -1.589,1.531 -1.631,4.065 -0.097,5.651 C -4.116,1.489 -1.589,1.533 0,0 z"
               inkscape:connector-curvature="0" />
          </g>
          <g
             transform="translate(221.8198,407.459)"
             id="g3139">
            <path
               id="path3141"
               style="fill:#999999;fill-opacity:1;fill-rule:nonzero;stroke:none"
               d="m 0,0 c 5.191,-5.015 5.265,-13.359 0.165,-18.637 -5.099,-5.276 -13.439,-5.487 -18.631,-0.472 -5.192,5.019 -5.265,13.361 -0.168,18.641 C -13.533,4.807 -5.191,5.02 0,0"
               inkscape:connector-curvature="0" />
          </g>
          <g
             transform="translate(230.687,451.7705)"
             id="g3143">
            <path
               id="path3145"
               style="fill:none;stroke:#9b9b9b;stroke-width:0.25;stroke-linecap:butt;stroke-linejoin:miter;stroke-miterlimit:10;stroke-opacity:1;stroke-dasharray:none"
               d="m 0,0 c 4.505,-4.354 4.525,-11.64 0.049,-16.275 -4.477,-4.633 -11.76,-4.859 -16.262,-0.505 -4.507,4.349 -4.528,11.638 -0.051,16.271 C -11.787,4.124 -4.506,4.35 0,0 z"
               inkscape:connector-curvature="0" />
          </g>
          <g
             transform="translate(319.5317,353.7451)"
             id="g3147">
            <path
               id="path3149"
               style="fill:none;stroke:#bfbfbf;stroke-width:0.40000001;stroke-linecap:butt;stroke-linejoin:miter;stroke-miterlimit:10;stroke-opacity:1;stroke-dasharray:none"
               d="m 0,0 c 3.816,-3.688 3.786,-9.915 -0.069,-13.905 -3.856,-3.99 -10.077,-4.231 -13.895,-0.543 -3.819,3.69 -3.789,9.917 0.068,13.906 C -10.04,3.448 -3.819,3.692 0,0 z"
               inkscape:connector-curvature="0" />
          </g>
          <g
             transform="translate(316.6235,349.4951)"
             id="g3151">
            <path
               id="path3153"
               style="fill:#999999;fill-opacity:1;fill-rule:nonzero;stroke:none"
               d="m 0,0 c 1.757,-1.701 1.806,-4.502 0.107,-6.263 -1.7,-1.758 -4.503,-1.804 -6.264,-0.107 -1.759,1.7 -1.805,4.502 -0.106,6.263 C -4.563,1.653 -1.758,1.698 0,0"
               inkscape:connector-curvature="0" />
          </g>
          <g
             transform="translate(323.4263,358.2441)"
             id="g3155">
            <path
               id="path3157"
               style="fill:none;stroke:#bfbfbf;stroke-width:0.40000001;stroke-linecap:butt;stroke-linejoin:miter;stroke-miterlimit:10;stroke-opacity:1;stroke-dasharray:none"
               d="m 0,0 c 6.519,-6.301 6.698,-16.695 0.396,-23.219 -6.301,-6.518 -16.694,-6.697 -23.217,-0.397 -6.521,6.303 -6.7,16.698 -0.397,23.219 C -16.916,6.122 -6.524,6.301 0,0 z"
               inkscape:connector-curvature="0" />
          </g>
          <g
             transform="translate(537.4585,158.7734)"
             id="g3159">
            <path
               id="path3161"
               style="fill:none;stroke:#9b9b9b;stroke-width:0.25;stroke-linecap:butt;stroke-linejoin:miter;stroke-miterlimit:10;stroke-opacity:1;stroke-dasharray:none"
               d="M 0,0 C 16.473,-15.919 16.925,-42.18 1.005,-58.655 -14.916,-75.127 -41.174,-75.576 -57.65,-59.658 -74.124,-43.74 -74.574,-17.479 -58.655,-1.003 -42.734,15.468 -16.474,15.918 0,0 z"
               inkscape:connector-curvature="0" />
          </g>
          <g
             transform="translate(582.4429,208.5859)"
             id="g3163">
            <path
               id="path3165"
               style="fill:none;stroke:#9b9b9b;stroke-width:0.25;stroke-linecap:butt;stroke-linejoin:miter;stroke-miterlimit:10;stroke-opacity:1;stroke-dasharray:none"
               d="m 0,0 c 15.704,-15.171 16.131,-40.202 0.957,-55.902 -15.174,-15.702 -40.201,-16.13 -55.902,-0.958 -15.704,15.175 -16.131,40.203 -0.96,55.905 C -40.73,14.748 -15.702,15.176 0,0 z"
               inkscape:connector-curvature="0" />
          </g>
          <g
             transform="translate(513.7437,131.666)"
             id="g3167">
            <path
               id="path3169"
               style="fill:#999999;fill-opacity:1;fill-rule:nonzero;stroke:none"
               d="m 0,0 c 1.865,-1.803 1.918,-4.778 0.114,-6.644 -1.803,-1.864 -4.778,-1.917 -6.645,-0.115 -1.865,1.807 -1.916,4.778 -0.113,6.646 C -4.841,1.753 -1.865,1.805 0,0"
               inkscape:connector-curvature="0" />
          </g>
          <g
             transform="translate(559.2554,184.127)"
             id="g3171">
            <path
               id="path3173"
               style="fill:#999999;fill-opacity:1;fill-rule:nonzero;stroke:none"
               d="m 0,0 c 1.931,-1.865 1.983,-4.945 0.118,-6.872 -1.864,-1.932 -4.943,-1.984 -6.874,-0.119 -1.929,1.864 -1.981,4.944 -0.117,6.872 C -5.007,1.813 -1.93,1.864 0,0"
               inkscape:connector-curvature="0" />
          </g>
          <g
             transform="translate(572.6509,198.2207)"
             id="g3175">
            <path
               id="path3177"
               style="fill:none;stroke:#bfbfbf;stroke-width:0.40000001;stroke-linecap:butt;stroke-linejoin:miter;stroke-miterlimit:10;stroke-opacity:1;stroke-dasharray:none"
               d="M 0,0 C 10.36,-10.012 10.644,-26.527 0.632,-36.889 -9.38,-47.25 -25.895,-47.527 -36.256,-37.517 -46.617,-27.505 -46.9,-10.988 -36.886,-0.631 -26.875,9.729 -10.361,10.013 0,0 z"
               inkscape:connector-curvature="0" />
          </g>
          <g
             transform="translate(472.5347,169.2373)"
             id="g3179">
            <path
               id="path3181"
               style="fill:#999999;fill-opacity:1;fill-rule:nonzero;stroke:none"
               d="M 0,0 C 1.866,-1.806 1.917,-4.78 0.115,-6.646 -1.688,-8.514 -4.664,-8.563 -6.53,-6.761 -8.396,-4.956 -8.445,-1.979 -6.645,-0.114 -4.841,1.75 -1.865,1.803 0,0"
               inkscape:connector-curvature="0" />
          </g>
          <g
             transform="translate(514.3208,211.7773)"
             id="g3183">
            <path
               id="path3185"
               style="fill:none;stroke:#bfbfbf;stroke-width:0.40000001;stroke-linecap:butt;stroke-linejoin:miter;stroke-miterlimit:10;stroke-opacity:1;stroke-dasharray:none"
               d="m 0,0 c 25.61,-24.753 26.312,-65.576 1.561,-91.19 -24.75,-25.611 -65.575,-26.309 -91.189,-1.561 -25.611,24.753 -26.31,65.576 -1.56,91.19 C -66.438,24.051 -25.612,24.749 0,0 z"
               inkscape:connector-curvature="0" />
          </g>
          <g
             transform="translate(477.3735,174.4756)"
             id="g3187">
            <path
               id="path3189"
               style="fill:none;stroke:#bfbfbf;stroke-width:0.40000001;stroke-linecap:butt;stroke-linejoin:miter;stroke-miterlimit:10;stroke-opacity:1;stroke-dasharray:none"
               d="m 0,0 c 5.146,-4.975 5.287,-13.181 0.314,-18.33 -4.975,-5.148 -13.181,-5.29 -18.331,-0.312 -5.147,4.976 -5.29,13.182 -0.313,18.326 C -13.355,4.833 -5.147,4.975 0,0 z"
               inkscape:connector-curvature="0" />
          </g>
          <g
             transform="translate(391.9819,202.4639)"
             id="g3191">
            <path
               id="path3193"
               style="fill:none;stroke:#bfbfbf;stroke-width:0.40000001;stroke-linecap:butt;stroke-linejoin:miter;stroke-miterlimit:10;stroke-opacity:1;stroke-dasharray:none"
               d="m 0,0 c 15.379,-14.863 15.798,-39.378 0.937,-54.758 -14.863,-15.383 -39.38,-15.8 -54.76,-0.936 -15.378,14.859 -15.798,39.378 -0.936,54.757 C -39.897,14.443 -15.381,14.863 0,0 z"
               inkscape:connector-curvature="0" />
          </g>
          <g
             transform="translate(384.2007,195.1123)"
             id="g3195">
            <path
               id="path3197"
               style="fill:none;stroke:#9b9b9b;stroke-width:0.25;stroke-linecap:butt;stroke-linejoin:miter;stroke-miterlimit:10;stroke-opacity:1;stroke-dasharray:none"
               d="m 0,0 c 11.199,-10.822 11.503,-28.668 0.681,-39.865 -10.82,-11.2 -28.668,-11.505 -39.868,-0.684 -11.193,10.819 -11.501,28.668 -0.679,39.868 C -29.046,10.513 -11.196,10.821 0,0 z"
               inkscape:connector-curvature="0" />
          </g>
          <g
             transform="translate(278.8286,292.4316)"
             id="g3199">
            <path
               id="path3201"
               style="fill:none;stroke:#bfbfbf;stroke-width:0.40000001;stroke-linecap:butt;stroke-linejoin:miter;stroke-miterlimit:10;stroke-opacity:1;stroke-dasharray:none"
               d="m 0,0 c 10.104,-9.764 10.381,-25.867 0.616,-35.973 -9.762,-10.103 -25.869,-10.379 -35.972,-0.616 -10.101,9.763 -10.378,25.87 -0.615,35.972 C -26.207,9.487 -10.102,9.762 0,0 z"
               inkscape:connector-curvature="0" />
          </g>
          <g
             transform="translate(287.0923,298.416)"
             id="g3203">
            <path
               id="path3205"
               style="fill:none;stroke:#bfbfbf;stroke-width:0.40000001;stroke-linecap:butt;stroke-linejoin:miter;stroke-miterlimit:10;stroke-opacity:1;stroke-dasharray:none"
               d="m 0,0 c 13.899,-13.43 14.278,-35.589 0.848,-49.49 -13.435,-13.898 -35.592,-14.277 -49.49,-0.847 -13.9,13.433 -14.281,35.593 -0.847,49.489 C -36.059,13.055 -13.898,13.434 0,0 z"
               inkscape:connector-curvature="0" />
          </g>
          <g
             transform="translate(428.7085,344.6807)"
             id="g3207">
            <path
               id="path3209"
               style="fill:none;stroke:#9b9b9b;stroke-width:0.25;stroke-linecap:butt;stroke-linejoin:miter;stroke-miterlimit:10;stroke-opacity:1;stroke-dasharray:none"
               d="m 0,0 c 57.913,-55.965 59.492,-148.279 3.526,-206.195 -55.964,-57.914 -148.281,-59.494 -206.194,-3.529 -57.914,55.965 -59.493,148.28 -3.527,206.196 C -150.23,54.386 -57.914,55.966 0,0 z"
               inkscape:connector-curvature="0" />
          </g>
          <g
             transform="translate(265.6499,277.8389)"
             id="g3211">
            <path
               id="path3213"
               style="fill:#999999;fill-opacity:1;fill-rule:nonzero;stroke:none"
               d="M 0,0 C 2.122,-2.054 2.182,-5.438 0.128,-7.563 -1.924,-9.685 -5.308,-9.745 -7.431,-7.689 -9.557,-5.64 -9.613,-2.255 -7.562,-0.13 -5.509,1.991 -2.124,2.05 0,0"
               inkscape:connector-curvature="0" />
          </g>
          <g
             transform="translate(376.5415,416.7246)"
             id="g3215">
            <path
               id="path3217"
               style="fill:none;stroke:#9b9b9b;stroke-width:0.25;stroke-linecap:butt;stroke-linejoin:miter;stroke-miterlimit:10;stroke-opacity:1;stroke-dasharray:none"
               d="m 0,0 c 36.71,-35.479 37.712,-93.995 2.236,-130.705 -35.474,-36.711 -93.994,-37.714 -130.704,-2.236 -36.711,35.476 -37.713,93.994 -2.236,130.704 C -95.229,34.471 -36.71,35.477 0,0 z"
               inkscape:connector-curvature="0" />
          </g>
          <g
             transform="translate(408.23,282.4521)"
             id="g3219">
            <path
               id="path3221"
               style="fill:none;stroke:#bfbfbf;stroke-width:0.40000001;stroke-linecap:butt;stroke-linejoin:miter;stroke-miterlimit:10;stroke-opacity:1;stroke-dasharray:none"
               d="m 0,0 c 18.533,-17.908 19.038,-47.445 1.129,-65.979 -17.909,-18.535 -47.45,-19.04 -65.982,-1.13 -18.534,17.91 -19.039,47.451 -1.129,65.983 C -48.072,17.405 -18.532,17.91 0,0 z"
               inkscape:connector-curvature="0" />
          </g>
          <g
             transform="translate(352.4399,264.9404)"
             id="g3223">
            <path
               id="path3225"
               style="fill:none;stroke:#bfbfbf;stroke-width:0.40000001;stroke-linecap:butt;stroke-linejoin:miter;stroke-miterlimit:10;stroke-opacity:1;stroke-dasharray:none"
               d="m 0,0 c 14.962,-14.458 15.369,-38.304 0.91,-53.268 -14.457,-14.96 -38.306,-15.365 -53.266,-0.91 -14.962,14.458 -15.37,38.304 -0.911,53.269 C -38.81,14.05 -14.961,14.459 0,0 z"
               inkscape:connector-curvature="0" />
          </g>
          <g
             transform="translate(363.7124,329.9814)"
             id="g3227">
            <path
               id="path3229"
               style="fill:none;stroke:#bfbfbf;stroke-width:0.40000001;stroke-linecap:butt;stroke-linejoin:miter;stroke-miterlimit:10;stroke-opacity:1;stroke-dasharray:none"
               d="m 0,0 c 12.868,-12.437 13.22,-32.955 0.781,-45.824 -12.437,-12.872 -32.949,-13.222 -45.822,-0.786 -12.868,12.44 -13.222,32.954 -0.784,45.822 C -33.389,12.084 -12.871,12.437 0,0 z"
               inkscape:connector-curvature="0" />
          </g>
          <g
             transform="translate(355.186,323.6475)"
             id="g3231">
            <path
               id="path3233"
               style="fill:none;stroke:#bfbfbf;stroke-width:0.40000001;stroke-linecap:butt;stroke-linejoin:miter;stroke-miterlimit:10;stroke-opacity:1;stroke-dasharray:none"
               d="m 0,0 c 9.354,-9.038 9.609,-23.946 0.571,-33.302 -9.039,-9.348 -23.947,-9.605 -33.299,-0.567 -9.352,9.035 -9.607,23.946 -0.568,33.296 C -24.26,8.782 -9.352,9.034 0,0 z"
               inkscape:connector-curvature="0" />
          </g>
          <g
             transform="translate(346.0239,314.4746)"
             id="g3235">
            <path
               id="path3237"
               style="fill:none;stroke:#9b9b9b;stroke-width:0.25;stroke-linecap:butt;stroke-linejoin:miter;stroke-miterlimit:10;stroke-opacity:1;stroke-dasharray:none"
               d="m 0,0 c 4.204,-4.063 4.319,-10.766 0.257,-14.967 -4.063,-4.209 -10.764,-4.32 -14.97,-0.26 -4.205,4.064 -4.317,10.766 -0.256,14.971 C -10.906,3.945 -4.204,4.064 0,0 z"
               inkscape:connector-curvature="0" />
          </g>
          <g
             transform="translate(342.5151,309.7539)"
             id="g3239">
            <path
               id="path3241"
               style="fill:#999999;fill-opacity:1;fill-rule:nonzero;stroke:none"
               d="m 0,0 c 1.63,-1.576 1.673,-4.172 0.099,-5.803 -1.575,-1.631 -4.173,-1.676 -5.803,-0.101 -1.632,1.576 -1.678,4.175 -0.103,5.806 C -4.229,1.529 -1.631,1.574 0,0"
               inkscape:connector-curvature="0" />
          </g>
          <g
             transform="translate(379.1714,252.3994)"
             id="g3243">
            <path
               id="path3245"
               style="fill:#999999;fill-opacity:1;fill-rule:nonzero;stroke:none"
               d="M 0,0 C 2.144,-2.073 2.202,-5.494 0.131,-7.638 -1.942,-9.785 -5.361,-9.841 -7.505,-7.769 -9.652,-5.699 -9.71,-2.277 -7.638,-0.13 -5.563,2.014 -2.145,2.072 0,0"
               inkscape:connector-curvature="0" />
          </g>
          <g
             transform="translate(368.9546,179.8027)"
             id="g3247">
            <path
               id="path3249"
               style="fill:#999999;fill-opacity:1;fill-rule:nonzero;stroke:none"
               d="m 0,0 c 2.146,-2.072 2.203,-5.494 0.129,-7.638 -2.07,-2.147 -5.49,-2.203 -7.635,-0.133 -2.145,2.077 -2.205,5.494 -0.131,7.637 C -5.563,2.014 -2.146,2.073 0,0"
               inkscape:connector-curvature="0" />
          </g>
          <g
             transform="translate(386.2446,223.0283)"
             id="g3251">
            <path
               id="path3253"
               style="fill:none;stroke:#bfbfbf;stroke-width:0.40000001;stroke-linecap:butt;stroke-linejoin:miter;stroke-miterlimit:10;stroke-opacity:1;stroke-dasharray:none"
               d="M 0,0 C 2.831,-2.732 2.908,-7.246 0.174,-10.078 -2.564,-12.912 -7.078,-12.99 -9.91,-10.252 -12.741,-7.514 -12.818,-3 -10.081,-0.17 -7.346,2.661 -2.832,2.738 0,0 z"
               inkscape:connector-curvature="0" />
          </g>
          <g
             transform="translate(412.396,261.7529)"
             id="g3255">
            <path
               id="path3257"
               style="fill:none;stroke:#bfbfbf;stroke-width:0.40000001;stroke-linecap:butt;stroke-linejoin:miter;stroke-miterlimit:10;stroke-opacity:1;stroke-dasharray:none"
               d="m 0,0 c 2.83,-2.737 2.908,-7.247 0.173,-10.082 -2.736,-2.831 -7.249,-2.909 -10.082,-0.17 -2.831,2.732 -2.907,7.248 -0.173,10.078 C -7.347,2.66 -2.83,2.734 0,0 z"
               inkscape:connector-curvature="0" />
          </g>
          <g
             transform="translate(348.5884,249.5049)"
             id="g3259">
            <path
               id="path3261"
               style="fill:none;stroke:#bfbfbf;stroke-width:0.40000001;stroke-linecap:butt;stroke-linejoin:miter;stroke-miterlimit:10;stroke-opacity:1;stroke-dasharray:none"
               d="m 0,0 c 3.387,-3.272 3.479,-8.674 0.204,-12.065 -3.275,-3.393 -8.677,-3.481 -12.066,-0.206 -3.389,3.274 -3.481,8.675 -0.207,12.067 C -8.792,3.184 -3.391,3.277 0,0 z"
               inkscape:connector-curvature="0" />
          </g>
          <g
             transform="translate(374.8169,288.1514)"
             id="g3263">
            <path
               id="path3265"
               style="fill:none;stroke:#bfbfbf;stroke-width:0.40000001;stroke-linecap:butt;stroke-linejoin:miter;stroke-miterlimit:10;stroke-opacity:1;stroke-dasharray:none"
               d="m 0,0 c 3.132,-3.023 3.216,-8.017 0.19,-11.149 -3.027,-3.131 -8.018,-3.217 -11.15,-0.193 -3.134,3.028 -3.217,8.021 -0.19,11.154 C -8.126,2.942 -3.133,3.028 0,0 z"
               inkscape:connector-curvature="0" />
          </g>
          <g
             transform="translate(341.8257,256.1914)"
             id="g3267">
            <path
               id="path3269"
               style="fill:none;stroke:#bfbfbf;stroke-width:0.40000001;stroke-linecap:butt;stroke-linejoin:miter;stroke-miterlimit:10;stroke-opacity:1;stroke-dasharray:none"
               d="m 0,0 c 9.74,-9.413 10.005,-24.938 0.595,-34.675 -9.412,-9.739 -24.937,-10.004 -34.675,-0.593 -9.738,9.414 -10.004,24.934 -0.592,34.674 C -25.263,9.143 -9.738,9.41 0,0 z"
               inkscape:connector-curvature="0" />
          </g>
          <g
             transform="translate(393.2622,268.2246)"
             id="g3271">
            <path
               id="path3273"
               style="fill:none;stroke:#bfbfbf;stroke-width:0.60000002;stroke-linecap:butt;stroke-linejoin:miter;stroke-miterlimit:10;stroke-opacity:1;stroke-dasharray:none"
               d="m 0,0 c 10.213,-9.866 10.489,-26.146 0.623,-36.354 -9.866,-10.211 -26.143,-10.487 -36.352,-0.625 -10.212,9.872 -10.491,26.146 -0.623,36.355 C -26.487,9.585 -10.208,9.866 0,0 z"
               inkscape:connector-curvature="0" />
          </g>
          <g
             transform="translate(419.7437,336.2217)"
             id="g3275">
            <path
               id="path3277"
               style="fill:none;stroke:#9b9b9b;stroke-width:0.25;stroke-linecap:butt;stroke-linejoin:miter;stroke-miterlimit:10;stroke-opacity:1;stroke-dasharray:none"
               d="m 0,0 c 54.248,-52.42 55.727,-138.892 3.307,-193.137 -52.42,-54.245 -138.894,-55.727 -193.137,-3.306 -54.245,52.421 -55.725,138.891 -3.305,193.137 C -140.714,50.938 -54.244,52.417 0,0 z"
               inkscape:connector-curvature="0" />
          </g>
          <g
             transform="translate(405.0581,320.6719)"
             id="g3279">
            <path
               id="path3281"
               style="fill:none;stroke:#9b9b9b;stroke-width:0.25;stroke-linecap:butt;stroke-linejoin:miter;stroke-miterlimit:10;stroke-opacity:1;stroke-dasharray:none"
               d="m 0,0 c 45.752,-44.211 47,-117.142 2.787,-162.896 -44.214,-45.751 -117.142,-46.997 -162.894,-2.785 -45.753,44.211 -46.998,117.141 -2.789,162.895 C -118.684,42.963 -45.752,44.211 0,0 z"
               inkscape:connector-curvature="0" />
          </g>
          <g
             transform="translate(389.1636,293.5156)"
             id="g3283">
            <path
               id="path3285"
               style="fill:none;stroke:#bfbfbf;stroke-width:0.40000001;stroke-linecap:butt;stroke-linejoin:miter;stroke-miterlimit:10;stroke-opacity:1;stroke-dasharray:none"
               d="m 0,0 -19.706,106.922 c 0,0 46.46,3.774 89.384,-26.889 0,0 45.712,-32.91 53.484,-71.964 L 20.148,-12.26"
               inkscape:connector-curvature="0" />
          </g>
          <g
             transform="translate(331.646,266.1777)"
             id="g3287">
            <path
               id="path3289"
               style="fill:none;stroke:#bfbfbf;stroke-width:0.40000001;stroke-linecap:butt;stroke-linejoin:miter;stroke-miterlimit:10;stroke-opacity:1;stroke-dasharray:none"
               d="m 0,0 -109.863,-21.821 c 0,0 -1.98,48.784 27.736,93.526 0,0 28.621,41.74 72.865,54.415 L 12.084,17.166"
               inkscape:connector-curvature="0" />
          </g>
          <g
             transform="translate(339.7769,219.5635)"
             id="g3291">
            <path
               id="path3293"
               style="fill:none;stroke:#bfbfbf;stroke-width:0.40000001;stroke-linecap:butt;stroke-linejoin:miter;stroke-miterlimit:10;stroke-opacity:1;stroke-dasharray:none"
               d="m 0,0 -108.046,-20.87 c 0,0 21.314,-53.498 60.165,-73.915 0,0 43.785,-27.443 86.557,-22.357 L 19.498,-14.336"
               inkscape:connector-curvature="0" />
          </g>
          <g
             transform="translate(420.4116,235.3809)"
             id="g3295">
            <path
               id="path3297"
               style="fill:none;stroke:#bfbfbf;stroke-width:0.40000001;stroke-linecap:butt;stroke-linejoin:miter;stroke-miterlimit:10;stroke-opacity:1;stroke-dasharray:none"
               d="m 0,0 100.729,19.83 c 0,0 4.249,-47.368 -26.665,-89.152 0,0 -31.097,-44.305 -69.892,-54.138 l -18.911,100.748"
               inkscape:connector-curvature="0" />
          </g>
        </g>
      </g>
      <g
         id="g3299">
        <g
           clip-path="url(#clipPath3303)"
           id="g3301">
          <g
             transform="translate(169.0308,259.918)"
             id="g3307">
            <path
               id="path3309"
               style="fill:#231f20;fill-opacity:1;fill-rule:nonzero;stroke:none"
               d="m 0,0 c -2.213,0 -4.817,-0.521 -6.771,-2.604 -1.042,-1.042 -1.563,-2.344 -1.954,-3.907 l 17.32,0 C 8.334,-4.948 7.684,-3.646 6.771,-2.604 4.818,-0.521 2.214,0 0,0 m 25.653,-20.835 5.079,-16.668 c -4.818,-6.901 -18.23,-12.501 -31.643,-12.501 -9.115,0 -19.793,3.125 -26.825,10.548 -6.902,7.292 -10.287,16.017 -10.287,26.825 0,10.808 3.515,20.053 10.157,26.955 6.901,7.422 17.97,10.417 26.044,10.417 9.896,0 19.923,-3.255 26.564,-10.678 5.339,-5.599 7.944,-13.802 8.464,-21.355 0.261,-4.688 0.261,-7.684 -0.651,-10.288 -4.818,-0.65 -15.236,-0.65 -15.236,-0.65 l -26.303,0 c 0.52,-3.777 3.776,-6.511 7.682,-7.423 7.814,-2.474 20.315,1.302 26.955,4.818"
               inkscape:connector-curvature="0" />
          </g>
          <g
             transform="translate(285.5806,211.4766)"
             id="g3311">
            <path
               id="path3313"
               style="fill:#231f20;fill-opacity:1;fill-rule:nonzero;stroke:none"
               d="m 0,0 -28.258,0 -1.432,5.339 c -4.427,-4.297 -11.329,-6.772 -18.361,-6.772 -3.125,0 -14.845,0 -22.007,7.553 -6.641,6.901 -7.552,18.882 -7.552,34.769 l 0,30.731 32.424,0 0,-35.94 c 0,-5.73 0.26,-7.422 1.693,-9.376 1.172,-1.432 3.125,-1.693 4.297,-1.693 2.474,0 4.948,0.911 6.902,2.605 l 0,44.404 L 0,71.62 0,0 z"
               inkscape:connector-curvature="0" />
          </g>
          <g
             transform="translate(295.2183,283.0967)"
             id="g3315">
            <path
               id="path3317"
               style="fill:#231f20;fill-opacity:1;fill-rule:nonzero;stroke:none"
               d="m 0,0 58.599,0 -2.605,-27.216 -23.569,0 0,-44.404 L 0,-71.62 0,0 z"
               inkscape:connector-curvature="0" />
          </g>
          <g
             transform="translate(437.1587,211.4766)"
             id="g3319">
            <path
               id="path3321"
               style="fill:#231f20;fill-opacity:1;fill-rule:nonzero;stroke:none"
               d="m 0,0 -28.258,0 -1.432,5.339 c -4.427,-4.297 -11.329,-6.772 -18.361,-6.772 -3.125,0 -14.845,0 -22.007,7.553 -6.641,6.901 -7.552,18.882 -7.552,34.769 l 0,30.731 32.424,0 0,-35.94 c 0,-5.73 0.26,-7.422 1.693,-9.376 1.172,-1.432 3.125,-1.693 4.297,-1.693 2.474,0 4.948,0.911 6.902,2.605 l 0,44.404 L 0,71.62 0,0 z"
               inkscape:connector-curvature="0" />
          </g>
          <g
             transform="translate(447.0571,302.1084)"
             id="g3323">
            <path
               id="path3325"
               style="fill:#231f20;fill-opacity:1;fill-rule:nonzero;stroke:none"
               d="m 0,0 32.294,2.604 0,-42.581 4.558,0 9.115,21.095 35.159,0 -17.188,-32.814 20.183,-38.806 -35.159,0 -10.548,20.966 -6.12,0 0,-21.096 L 0,-90.632 0,0 z"
               inkscape:connector-curvature="0" />
          </g>
          <g
             transform="translate(571.5503,254.9697)"
             id="g3327">
            <path
               id="path3329"
               style="fill:#231f20;fill-opacity:1;fill-rule:nonzero;stroke:none"
               d="m 0,0 c -1.953,1.823 -4.298,2.344 -6.771,2.344 -2.475,0 -4.819,-0.521 -6.772,-2.344 -1.433,-1.433 -2.995,-3.646 -2.995,-7.683 0,-4.037 1.562,-6.251 2.995,-7.683 1.953,-1.823 4.297,-2.344 6.772,-2.344 2.473,0 4.818,0.521 6.771,2.344 1.432,1.432 2.995,3.646 2.995,7.683 C 2.995,-3.646 1.432,-1.433 0,0 m -6.771,29.689 c 23.048,0 37.893,-16.146 37.893,-37.372 0,-23.048 -16.538,-37.503 -37.893,-37.503 -23.049,0 -37.764,16.408 -37.764,37.503 0,22.918 16.538,37.372 37.764,37.372"
               inkscape:connector-curvature="0" />
          </g>
          <g
             transform="translate(510.2192,313.9883)"
             id="g3331">
            <path
               id="path3333"
               style="fill:#bd202e;fill-opacity:1;fill-rule:nonzero;stroke:none"
               d="m 0,0 9.296,0.242 0,-11.087 -26.822,0 0.532,10.071 c 9.102,7.989 11.669,10.41 11.669,11.716 0,1.114 -1.018,1.55 -2.76,1.453 -2.905,-0.194 -4.987,-1.114 -7.65,-2.227 l -2.566,10.312 c 3.728,2.47 8.666,3.535 12.734,3.535 4.308,-0.048 7.6,-1.549 9.101,-2.518 C 6.439,19.657 7.844,17.14 8.086,14.09 8.521,8.183 3.97,3.68 0,0"
               inkscape:connector-curvature="0" />
          </g>
          <g
             transform="translate(533.8013,316.168)"
             id="g3335">
            <path
               id="path3337"
               style="fill:#bd202e;fill-opacity:1;fill-rule:nonzero;stroke:none"
               d="m 0,0 c 0.775,-0.775 1.646,-0.872 2.373,-0.872 0.726,0 1.598,0.097 2.372,0.872 0.92,0.871 1.501,2.275 1.501,4.018 0,1.743 -0.581,3.147 -1.501,4.018 C 3.971,8.812 3.099,8.908 2.373,8.908 1.646,8.908 0.775,8.812 0,8.036 -0.871,7.165 -1.501,5.761 -1.501,4.018 -1.501,2.275 -0.871,0.871 0,0 m 13.702,-9.006 c -3.437,-3.389 -7.02,-4.696 -11.281,-4.696 -4.164,0 -7.746,1.307 -11.184,4.696 -2.712,2.614 -4.938,7.844 -4.938,13.024 0,5.18 2.226,10.41 4.938,13.024 3.438,3.389 7.02,4.696 11.184,4.696 4.261,0 7.844,-1.307 11.281,-4.696 2.711,-2.614 4.89,-7.844 4.89,-13.024 0,-5.18 -2.179,-10.41 -4.89,-13.024"
               inkscape:connector-curvature="0" />
          </g>
          <g
             transform="translate(570.1167,337.2285)"
             id="g3339">
            <path
               id="path3341"
               style="fill:#bd202e;fill-opacity:1;fill-rule:nonzero;stroke:none"
               d="m 0,0 0,-34.085 -12.54,0 0,22.417 -3.099,0 0,11.619 L 0,0 z"
               inkscape:connector-curvature="0" />
          </g>
          <g
             transform="translate(579.2192,324.0596)"
             id="g3343">
            <path
               id="path3345"
               style="fill:#bd202e;fill-opacity:1;fill-rule:nonzero;stroke:none"
               d="M 0,0 C 3.293,0 6.439,0.193 7.359,0.581 7.698,0.726 7.844,1.017 7.554,1.452 7.215,1.888 5.956,2.179 4.697,2.179 1.743,2.179 -1.064,1.743 -4.115,0.339 L -6.729,10.7 c 3.728,2.469 8.23,3.05 12.297,3.05 l 0.049,-0.049 c 4.26,0 7.407,-1.403 8.908,-2.372 2.906,-1.84 4.358,-4.357 4.6,-7.407 0.193,-2.518 -0.436,-4.987 -2.082,-6.778 1.888,-0.824 3.68,-3.148 3.68,-6.634 0,-2.662 -1.356,-6.584 -5.035,-9.102 -2.083,-1.404 -5.423,-2.808 -10.168,-2.856 l 0.194,0 c -4.213,-0.049 -8.715,0.532 -12.443,3.001 l 2.566,10.216 c 3.05,-1.404 5.858,-1.84 8.811,-1.84 1.744,0 3.148,0.436 3.196,1.162 0.096,1.985 -4.212,0.92 -7.698,1.695 L 0,0 z"
               inkscape:connector-curvature="0" />
          </g>
          <g
             transform="translate(499.9976,349.1367)"
             id="g3347">
            <path
               id="path3349"
               style="fill:#a7a9ac;fill-opacity:1;fill-rule:nonzero;stroke:none"
               d="m 0,0 c 0.896,0.06 1.702,0.329 2.15,0.657 0,0.179 -0.03,0.359 -0.03,0.537 l -1.732,0 C -0.358,1.194 -1.344,1.135 -1.463,0.776 -1.612,0.299 -0.807,-0.06 0,0 m 8.66,-4.867 -5.555,0 -0.358,1.224 c -0.985,-0.925 -2.568,-1.583 -4.3,-1.583 -1.403,0 -2.926,0.538 -3.822,1.254 -1.105,0.897 -2.03,2.659 -2.001,4.629 0.03,1.374 0.389,2.479 1.344,3.196 1.433,1.075 3.553,1.164 4.121,1.194 C -0.717,5.106 1.016,5.017 2.03,4.957 1.94,5.524 1.522,5.883 1.016,6.032 -0.598,6.48 -3.226,5.823 -4.569,5.315 l -1.613,4.659 c 1.315,0.806 3.793,1.941 6.869,1.941 2.179,0 4.36,-0.508 6.032,-2.3 C 8.302,7.943 8.66,5.495 8.66,2.808 l 0,-7.675 z"
               inkscape:connector-curvature="0" />
          </g>
          <g
             transform="translate(518.9897,363.5596)"
             id="g3351">
            <path
               id="path3353"
               style="fill:#a7a9ac;fill-opacity:1;fill-rule:nonzero;stroke:none"
               d="m 0,0 0,-2.866 6.062,0 -0.299,-5.764 -5.763,0 0,-3.194 c 0,-1.016 0.358,-1.583 0.926,-1.733 1.014,-0.298 2.388,0.15 4.24,0.926 l 0.955,-4.15 c -0.656,-0.926 -1.94,-1.852 -3.583,-2.39 -1.434,-0.477 -3.016,-0.477 -3.374,-0.477 -2.15,0 -3.733,0.597 -4.778,1.583 -1.135,1.194 -1.792,2.478 -1.792,5.524 l 0,3.911 -1.851,0 0.298,5.436 L 0,0 z"
               inkscape:connector-curvature="0" />
          </g>
          <g
             transform="translate(526.9321,365.0234)"
             id="g3355">
            <path
               id="path3357"
               style="fill:#a7a9ac;fill-opacity:1;fill-rule:nonzero;stroke:none"
               d="m 0,0 7.405,0.627 0,-6.002 c 0.986,0.926 2.867,1.403 4.211,1.403 0.717,0 2.807,-0.03 4.449,-1.761 1.523,-1.583 1.672,-4.33 1.672,-7.974 l 0,-7.047 -7.375,0 0,8.242 c 0,1.314 -0.06,1.702 -0.388,2.15 -0.269,0.329 -0.717,0.388 -0.986,0.388 -0.597,0 -1.165,-0.239 -1.583,-0.627 l 0,-10.153 -7.405,0 L 0,0 z"
               inkscape:connector-curvature="0" />
          </g>
          <g
             transform="translate(554.7632,355.3779)"
             id="g3359">
            <path
               id="path3361"
               style="fill:#a7a9ac;fill-opacity:1;fill-rule:nonzero;stroke:none"
               d="m 0,0 c -0.508,0 -1.105,-0.119 -1.553,-0.597 -0.239,-0.239 -0.358,-0.538 -0.448,-0.896 l 3.972,0 C 1.911,-1.135 1.762,-0.836 1.553,-0.597 1.104,-0.119 0.508,0 0,0 M 5.883,-4.777 7.047,-8.6 c -1.105,-1.583 -4.181,-2.867 -7.256,-2.867 -2.091,0 -4.539,0.717 -6.151,2.419 -1.583,1.672 -2.36,3.673 -2.36,6.152 0,2.478 0.807,4.598 2.329,6.181 1.583,1.702 4.121,2.389 5.973,2.389 2.27,0 4.568,-0.747 6.092,-2.448 1.223,-1.285 1.821,-3.166 1.94,-4.898 0.06,-1.075 0.06,-1.762 -0.149,-2.359 -1.105,-0.15 -3.493,-0.15 -3.493,-0.15 l -6.033,0 c 0.12,-0.866 0.867,-1.493 1.762,-1.702 1.792,-0.567 4.658,0.299 6.182,1.106"
               inkscape:connector-curvature="0" />
          </g>
          <g
             transform="translate(563.8706,360.6934)"
             id="g3363">
            <path
               id="path3365"
               style="fill:#a7a9ac;fill-opacity:1;fill-rule:nonzero;stroke:none"
               d="m 0,0 6.479,0 0.359,-1.374 c 1.165,1.075 3.076,1.702 4.778,1.702 0.717,0 2.807,0 4.449,-1.731 1.523,-1.583 1.733,-4.33 1.733,-7.974 l 0,-7.047 -7.436,0 0,8.242 c 0,1.314 -0.06,1.703 -0.388,2.15 -0.269,0.329 -0.717,0.388 -0.986,0.388 -0.597,0 -1.165,-0.239 -1.583,-0.627 l 0,-10.153 -7.405,0 L 0,0 z"
               inkscape:connector-curvature="0" />
          </g>
          <g
             transform="translate(591.2231,361.0811)"
             id="g3367">
            <path
               id="path3369"
               style="fill:#a7a9ac;fill-opacity:1;fill-rule:nonzero;stroke:none"
               d="M 0,0 C 2.419,0 4.419,-0.478 6.569,-1.582 L 5.195,-6.688 c -1.791,0.806 -3.433,1.104 -4.777,1.104 -0.567,0 -1.135,-0.119 -1.135,-0.507 0,-0.508 0.866,-0.478 1.493,-0.538 3.583,-0.299 6.689,-1.284 6.689,-4.568 0,-4.181 -4.21,-5.973 -7.436,-5.973 -3.343,0 -6.33,0.836 -8.212,2.12 l 1.344,5.076 c 2.509,-1.522 5.286,-1.85 5.704,-1.85 0.687,0 1.135,0.209 1.135,0.567 0,1.164 -8.122,0.029 -8.093,5.554 C -8.063,-1.762 -3.435,0 0,0"
               inkscape:connector-curvature="0" />
          </g>
          <g
             transform="translate(487.9224,294.3164)"
             id="g3371">
            <path
               id="path3373"
               style="fill:#a6a8ab;fill-opacity:1;fill-rule:nonzero;stroke:#a6a8ab;stroke-width:0.75;stroke-linecap:butt;stroke-linejoin:miter;stroke-miterlimit:10;stroke-opacity:1;stroke-dasharray:none"
               d="M 0,0 112.532,0"
               inkscape:connector-curvature="0" />
          </g>
        </g>
      </g>
    </g>
  </g>
</svg>
